<svg width="52" height="52" viewBox="0 0 52 52" fill="none" xmlns="http://www.w3.org/2000/svg">
<path d="M26 0.166748C11.74 0.166748 0.166626 11.7401 0.166626 26.0001C0.166626 40.2601 11.74 51.8334 26 51.8334C40.26 51.8334 51.8333 40.2601 51.8333 26.0001C51.8333 11.7401 40.26 0.166748 26 0.166748ZM26 10.5001C30.9858 10.5001 35.0416 14.5559 35.0416 19.5417C35.0416 24.5276 30.9858 28.5834 26 28.5834C21.0141 28.5834 16.9583 24.5276 16.9583 19.5417C16.9583 14.5559 21.0141 10.5001 26 10.5001ZM26 46.6668C20.7558 46.6668 14.5558 44.5484 10.1383 39.2268C14.5041 35.8168 20.0066 33.7501 26 33.7501C31.9933 33.7501 37.4958 35.8168 41.8616 39.2268C37.4441 44.5484 31.2441 46.6668 26 46.6668Z" fill="#BFBFBF"/>
</svg>
