<svg width="141" height="141" viewBox="0 0 141 141" fill="none" xmlns="http://www.w3.org/2000/svg">
<path d="M40.3771 75.373H3.6711C1.64388 75.373 0.000488281 77.0164 0.000488281 79.0437C0.000488281 81.0709 1.64388 82.7143 3.6711 82.7143H40.3771C42.4043 82.7143 44.0477 81.0709 44.0477 79.0437C44.0477 77.0164 42.4043 75.373 40.3771 75.373Z" fill="#0081C9"/>
<path d="M40.3774 88.7207H15.0168C12.9896 88.7207 11.3462 90.3641 11.3462 92.3913C11.3462 94.4185 12.9896 96.0619 15.0168 96.0619H40.3774C42.4046 96.0619 44.048 94.4185 44.048 92.3913C44.048 90.3641 42.4046 88.7207 40.3774 88.7207Z" fill="#0081C9"/>
<path d="M40.3776 102.068H23.0256C20.9984 102.068 19.355 103.712 19.355 105.739C19.355 107.766 20.9984 109.41 23.0256 109.41H40.3776C42.4048 109.41 44.0482 107.766 44.0482 105.739C44.0482 103.712 42.4048 102.068 40.3776 102.068Z" fill="#0081C9"/>
<path d="M79.7532 126.094C104.264 126.094 124.134 106.075 124.134 81.3795C124.134 56.6843 104.264 36.6648 79.7532 36.6648C55.2422 36.6648 35.3721 56.6843 35.3721 81.3795C35.3721 106.075 55.2422 126.094 79.7532 126.094Z" fill="url(#paint0_linear_71_3935)"/>
<path d="M124.134 81.3795C124.134 106.075 104.264 126.094 79.7532 126.094C55.2421 126.094 35.3721 106.075 35.3721 81.3795C35.3721 56.6844 55.2421 36.6648 79.7532 36.6648C104.264 36.6648 124.134 56.6844 124.134 81.3795ZM42.289 81.3795C42.289 102.226 59.0624 119.125 79.7532 119.125C100.444 119.125 117.217 102.226 117.217 81.3795C117.217 60.5329 100.444 43.6338 79.7532 43.6338C59.0624 43.6338 42.289 60.5329 42.289 81.3795Z" fill="#0020C9"/>
<path d="M84.7587 20.6477H74.0806V40.0019H84.7587V20.6477Z" fill="#0020C9"/>
<path d="M90.2116 15.3086H68.6272C66.8472 15.3086 65.4043 16.7515 65.4043 18.5315V22.7639C65.4043 24.5438 66.8472 25.9867 68.6272 25.9867H90.2116C91.9915 25.9867 93.4344 24.5438 93.4344 22.7639V18.5315C93.4344 16.7515 91.9915 15.3086 90.2116 15.3086Z" fill="#0020C9"/>
<path d="M77.0787 85.9909L101.645 62.7942C102.449 62.0351 102.486 60.7679 101.727 59.9639C100.967 59.1599 99.7002 59.1236 98.8962 59.8827L74.3296 83.0794C73.5256 83.8385 73.4892 85.1057 74.2484 85.9097C75.0075 86.7137 76.2747 86.75 77.0787 85.9909Z" fill="#0020C9"/>
<path d="M80.0866 84.0491C83.0353 84.0491 85.4257 81.8081 85.4257 79.0437C85.4257 76.2793 83.0353 74.0383 80.0866 74.0383C77.1379 74.0383 74.7476 76.2793 74.7476 79.0437C74.7476 81.8081 77.1379 84.0491 80.0866 84.0491Z" fill="#E3E3E3"/>
<path d="M122.132 46.6756C125.818 46.6756 128.806 43.6876 128.806 40.0017C128.806 36.3159 125.818 33.3279 122.132 33.3279C118.446 33.3279 115.458 36.3159 115.458 40.0017C115.458 43.6876 118.446 46.6756 122.132 46.6756Z" fill="#0081C9"/>
<path d="M121.798 117.419C123.088 117.419 124.134 116.373 124.134 115.083C124.134 113.793 123.088 112.747 121.798 112.747C120.508 112.747 119.462 113.793 119.462 115.083C119.462 116.373 120.508 117.419 121.798 117.419Z" fill="#0020C9"/>
<path d="M137.14 81.3797C138.43 81.3797 139.475 80.3339 139.475 79.0439C139.475 77.7538 138.43 76.708 137.14 76.708C135.85 76.708 134.804 77.7538 134.804 79.0439C134.804 80.3339 135.85 81.3797 137.14 81.3797Z" fill="#0081C9"/>
<path d="M44.3812 32.6605C45.6713 32.6605 46.7171 31.6147 46.7171 30.3246C46.7171 29.0346 45.6713 27.9888 44.3812 27.9888C43.0912 27.9888 42.0454 29.0346 42.0454 30.3246C42.0454 31.6147 43.0912 32.6605 44.3812 32.6605Z" fill="#0020C9"/>
<path d="M63.0678 35.9974C64.3578 35.9974 65.4036 34.9516 65.4036 33.6615C65.4036 32.3715 64.3578 31.3257 63.0678 31.3257C61.7777 31.3257 60.7319 32.3715 60.7319 33.6615C60.7319 34.9516 61.7777 35.9974 63.0678 35.9974Z" fill="#0020C9"/>
<path d="M26.6956 66.6971C29.2757 66.6971 31.3673 64.6056 31.3673 62.0255C31.3673 59.4453 29.2757 57.3538 26.6956 57.3538C24.1155 57.3538 22.0239 59.4453 22.0239 62.0255C22.0239 64.6056 24.1155 66.6971 26.6956 66.6971Z" fill="#0020C9"/>
<path d="M88.6408 134.657C136.279 121.928 166.369 -18.6704 109.447 10.1188C52.5242 38.9079 15.2161 7.09543 3.77023 49.6443C-8.41618 94.9458 43.3189 146.768 88.6408 134.657Z" fill="#E0EEFF" fill-opacity="0.26"/>
<defs>
<linearGradient id="paint0_linear_71_3935" x1="66.9304" y1="43.2816" x2="76.7469" y2="107.535" gradientUnits="userSpaceOnUse">
<stop stop-color="white"/>
<stop offset="1" stop-color="#88B9F3"/>
</linearGradient>
</defs>
</svg>
