<svg width="14" height="14" viewBox="0 0 14 14" fill="none" xmlns="http://www.w3.org/2000/svg">
<path d="M11.0207 10.0782L13.876 12.9328L12.9327 13.8762L10.078 11.0208C9.01583 11.8723 7.69467 12.3354 6.33334 12.3335C3.02134 12.3335 0.333336 9.6455 0.333336 6.3335C0.333336 3.0215 3.02134 0.333496 6.33334 0.333496C9.64534 0.333496 12.3333 3.0215 12.3333 6.3335C12.3353 7.69483 11.8722 9.01599 11.0207 10.0782ZM9.68334 9.5835C10.5294 8.71342 11.0019 7.54712 11 6.3335C11 3.75483 8.91134 1.66683 6.33334 1.66683C3.75467 1.66683 1.66667 3.75483 1.66667 6.3335C1.66667 8.9115 3.75467 11.0002 6.33334 11.0002C7.54696 11.0021 8.71326 10.5296 9.58334 9.6835L9.68334 9.5835V9.5835Z" fill="#A3A3A3"/>
</svg>
